<svg xmlns="http://www.w3.org/2000/svg" viewBox="0 0 32 32" shape-rendering="crispEdges">
  <rect width="32" height="32" fill="none"/>
  <rect x="6" y="5" width="4" height="4" fill="#facc15"/>
  <rect x="22" y="5" width="4" height="4" fill="#facc15"/>
  <rect x="7" y="6" width="2" height="2" fill="#fde2e4"/>
  <rect x="23" y="6" width="2" height="2" fill="#fde2e4"/>
  <rect x="9" y="4" width="14" height="14" fill="#facc15"/>
  <rect x="8" y="7" width="1" height="9" fill="#b45309"/>
  <rect x="23" y="7" width="1" height="9" fill="#b45309"/>
  <rect x="10" y="3" width="12" height="1" fill="#b45309"/>
  <rect x="12" y="12" width="8" height="5" fill="#fef3c7"/>
  <rect x="12" y="9" width="2" height="2" fill="#111827"/>
  <rect x="18" y="9" width="2" height="2" fill="#111827"/>
  <rect x="12" y="9" width="1" height="1" fill="#ffffff"/>
  <rect x="18" y="9" width="1" height="1" fill="#ffffff"/>
  <rect x="15" y="13" width="2" height="1" fill="#111827"/>
  <rect x="14" y="15" width="4" height="1" fill="#111827"/>
  <rect x="15" y="16" width="1" height="2" fill="#ffffff"/>
  <rect x="16" y="16" width="1" height="2" fill="#ffffff"/>
  <rect x="9" y="18" width="14" height="8" fill="#f59e0b"/>
  <rect x="12" y="20" width="8" height="5" fill="#fde68a"/>
  <rect x="11" y="26" width="3" height="3" fill="#92400e"/>
  <rect x="18" y="26" width="3" height="3" fill="#92400e"/>
</svg>
